# Blender v2.93.0 OBJ File: ''
# www.blender.org
mtllib roll.mtl
o roll
v 0.003542 -0.001859 0.019675
v 0.004000 -0.000000 0.019675
v -0.003884 -0.000957 0.019675
v -0.003884 0.000957 0.019675
v 0.003542 0.001859 0.019675
v -0.004000 -0.000000 0.019675
v 0.000482 0.003971 0.019675
v -0.001418 0.003740 0.019675
v -0.002994 0.002652 0.019675
v 0.002272 0.003292 0.019675
v -0.001418 -0.003740 0.019675
v 0.000482 -0.003971 0.019675
v 0.002272 -0.003292 0.019675
v -0.002994 -0.002652 0.019675
v 0.004855 0.001197 0.018675
v 0.004427 0.002324 0.018675
v 0.003743 0.003316 0.018675
v 0.002840 0.004115 0.018675
v 0.001773 0.004675 0.018675
v 0.000603 0.004964 0.018675
v -0.000603 0.004964 0.018675
v -0.001773 0.004675 0.018675
v -0.002840 0.004115 0.018675
v -0.003743 0.003316 0.018675
v -0.004427 0.002324 0.018675
v -0.004855 0.001197 0.018675
v -0.005000 -0.000000 0.018675
v -0.004855 -0.001197 0.018675
v -0.004427 -0.002324 0.018675
v -0.003743 -0.003316 0.018675
v -0.002840 -0.004115 0.018675
v -0.001773 -0.004675 0.018675
v -0.000603 -0.004964 0.018675
v 0.000603 -0.004964 0.018675
v 0.001773 -0.004675 0.018675
v 0.002840 -0.004115 0.018675
v 0.003743 -0.003316 0.018675
v 0.004427 -0.002324 0.018675
v 0.004855 -0.001197 0.018675
v 0.005000 -0.000000 0.018675
v -0.004427 0.002324 0.005400
v -0.005000 -0.000000 0.005400
v -0.002840 0.004115 0.005400
v -0.000603 0.004964 0.005400
v 0.001773 0.004675 0.005400
v 0.003743 0.003316 0.005400
v 0.004855 0.001197 0.005400
v 0.005000 -0.000000 0.005400
v 0.004855 -0.001197 0.005400
v 0.003743 -0.003316 0.005400
v 0.001773 -0.004675 0.005400
v -0.000603 -0.004964 0.005400
v -0.002840 -0.004115 0.005400
v -0.004427 -0.002324 0.005400
v 0.003848 -0.005848 0.005400
v 0.006500 -0.004000 0.005400
v -0.000000 -0.006692 0.005400
v -0.003848 -0.005848 0.005400
v -0.006500 -0.004000 0.005400
v 0.006500 0.004000 0.005400
v 0.003848 0.005848 0.005400
v -0.000000 0.006692 0.005400
v -0.003848 0.005848 0.005400
v -0.006500 0.004000 0.005400
v -0.006500 -0.004000 0.000675
v -0.006500 0.004000 0.000675
v 0.006500 -0.004000 0.000675
v 0.003848 -0.005848 0.000675
v -0.000000 -0.006692 0.000675
v -0.003848 -0.005848 0.000675
v 0.006500 0.004000 0.000675
v -0.003848 0.005848 0.000675
v -0.000000 0.006692 0.000675
v 0.003848 0.005848 0.000675
v 0.006000 -0.000000 0.000675
v 0.005313 0.002788 0.000675
v 0.003408 0.004938 0.000675
v 0.000723 0.005956 0.000675
v -0.002128 0.005610 0.000675
v -0.004491 0.003979 0.000675
v -0.004491 -0.003979 0.000675
v -0.002128 -0.005610 0.000675
v 0.000723 -0.005956 0.000675
v 0.003408 -0.004938 0.000675
v 0.005313 -0.002788 0.000675
v -0.005826 0.001436 0.000675
v -0.006000 -0.000000 0.000675
v -0.005826 -0.001436 0.000675
v -0.006000 -0.000000 -0.000000
v -0.005826 0.001436 0.000000
v -0.004491 0.003979 0.000000
v -0.002128 0.005610 0.000000
v 0.000723 0.005956 0.000000
v 0.003408 0.004938 0.000000
v 0.005313 0.002788 0.000000
v 0.006000 0.000000 -0.000000
v 0.005313 -0.002788 -0.000000
v 0.003408 -0.004938 -0.000000
v 0.000723 -0.005956 -0.000000
v -0.002128 -0.005610 -0.000000
v -0.004491 -0.003979 -0.000000
v -0.005826 -0.001436 -0.000000
v -0.013593 -0.003350 -0.000000
v -0.010479 -0.009284 -0.000000
v -0.004964 -0.013090 -0.000000
v 0.001688 -0.013898 -0.000000
v 0.007953 -0.011522 -0.000000
v 0.012396 -0.006506 -0.000000
v 0.014000 0.000000 -0.000000
v 0.012396 0.006506 0.000000
v 0.007953 0.011522 0.000000
v 0.001688 0.013898 0.000000
v -0.004964 0.013090 0.000000
v -0.010479 0.009284 0.000000
v -0.013593 0.003350 0.000000
v -0.014000 -0.000000 -0.000000
v -0.014000 0.000000 -0.002675
v -0.013593 0.003350 -0.002675
v -0.010479 0.009284 -0.002675
v -0.004964 0.013090 -0.002675
v 0.001688 0.013898 -0.002675
v 0.007953 0.011522 -0.002675
v 0.012396 0.006506 -0.002675
v 0.014000 0.000000 -0.002675
v 0.012396 -0.006506 -0.002675
v 0.007953 -0.011522 -0.002675
v 0.001688 -0.013898 -0.002675
v -0.004964 -0.013090 -0.002675
v -0.010479 -0.009284 -0.002675
v -0.013593 -0.003350 -0.002675
v -0.011651 0.002872 -0.002675
v -0.008982 0.007957 -0.002675
v -0.004255 0.011220 -0.002675
v 0.001446 0.011912 -0.002675
v 0.006817 0.009876 -0.002675
v 0.010626 0.005577 -0.002675
v 0.012000 0.000000 -0.002675
v 0.010626 -0.005577 -0.002675
v 0.006817 -0.009876 -0.002675
v 0.001446 -0.011912 -0.002675
v -0.004255 -0.011220 -0.002675
v -0.008982 -0.007957 -0.002675
v -0.011651 -0.002872 -0.002675
v 0.010626 -0.005577 -0.002975
v 0.012000 0.000000 -0.002975
v 0.006817 -0.009876 -0.002975
v 0.001446 -0.011912 -0.002975
v -0.004255 -0.011220 -0.002975
v -0.008982 -0.007957 -0.002975
v -0.011651 -0.002872 -0.002975
v -0.011651 0.002872 -0.002975
v -0.008982 0.007957 -0.002975
v -0.004255 0.011220 -0.002975
v 0.001446 0.011912 -0.002975
v 0.006817 0.009876 -0.002975
v 0.010626 0.005577 -0.002975
v 0.001688 0.013898 -0.002975
v -0.004964 0.013090 -0.002975
v -0.010479 0.009284 -0.002975
v -0.013593 0.003350 -0.002975
v -0.013593 -0.003350 -0.002975
v -0.010479 -0.009284 -0.002975
v -0.004964 -0.013090 -0.002975
v 0.001688 -0.013898 -0.002975
v 0.007953 -0.011522 -0.002975
v 0.012396 -0.006506 -0.002975
v 0.014000 0.000000 -0.002975
v 0.012396 0.006506 -0.002975
v 0.007953 0.011522 -0.002975
v 0.011970 0.007261 -0.025181
v 0.010279 0.009505 -0.031344
v 0.012396 0.006506 -0.023716
v 0.014000 0.000000 -0.015403
v 0.007953 -0.011522 -0.008560
v 0.010526 -0.009231 -0.009439
v 0.012396 -0.006506 -0.010756
v 0.001688 -0.013898 -0.007851
v -0.004964 -0.013090 -0.008070
v -0.010479 -0.009284 -0.009416
v -0.013593 -0.003350 -0.012708
v -0.013792 -0.002401 -0.013399
v -0.013593 0.003350 -0.018988
v -0.004964 0.013090 -0.037975
v -0.009292 0.010472 -0.037975
v -0.010479 0.009284 -0.030517
v -0.011970 0.007261 -0.025181
v 0.001688 0.013898 -0.037975
v 0.007953 0.011522 -0.037975
v 0.009292 0.010472 -0.037975
v -0.002138 0.011769 -0.037975
v -0.005313 0.010472 -0.037975
v 0.002138 0.011769 -0.037975
v 0.005313 0.010472 -0.037975
v -0.002138 0.011769 -0.036325
v -0.005485 0.010361 -0.036325
v 0.002138 0.011769 -0.036325
v 0.005485 0.010361 -0.036325
v 0.006768 0.010361 -0.036325
v 0.009998 0.003266 -0.018883
v 0.009147 0.007042 -0.024738
v 0.010000 -0.002401 -0.013399
v -0.009439 -0.006303 -0.010867
v -0.006747 -0.010381 -0.008973
v -0.002443 -0.012697 -0.008185
v 0.002443 -0.012697 -0.008185
v 0.006747 -0.010381 -0.008973
v 0.009439 -0.006303 -0.010867
v 0.010000 -0.003000 -0.012957
v -0.010000 -0.003000 -0.012957
v -0.010000 -0.002401 -0.013399
v -0.009998 0.003266 -0.018883
v -0.009047 0.007261 -0.025181
v -0.006768 0.010361 -0.036325
v -0.009147 0.007042 -0.036325
v -0.010000 0.003000 -0.036325
v -0.010000 0.003000 -0.019344
v 0.009147 0.007042 -0.036325
v 0.010000 0.003000 -0.019344
v 0.010000 0.003000 -0.036325
v 0.009298 -0.006681 -0.012750
v 0.010000 -0.003000 -0.013737
v 0.007071 -0.010071 -0.011842
v 0.003186 -0.012479 -0.011197
v 0.002444 -0.012697 -0.011139
v -0.001451 -0.012894 -0.011086
v -0.002448 -0.012696 -0.011139
v -0.005578 -0.011300 -0.011513
v -0.006753 -0.010375 -0.011760
v -0.008785 -0.007777 -0.012457
v -0.010000 -0.003000 -0.013737
v -0.002443 -0.027326 -0.036477
v -0.010000 -0.018928 -0.041325
v -0.009439 -0.021788 -0.039674
v -0.006747 -0.025320 -0.037634
v 0.002443 -0.027326 -0.036477
v 0.006747 -0.025320 -0.037634
v 0.009439 -0.021788 -0.039674
v 0.010000 -0.018928 -0.041325
v -0.010000 -0.012000 -0.045325
v 0.010000 -0.012000 -0.045325
v 0.010000 -0.003000 -0.029737
v 0.010000 -0.003000 -0.036325
v 0.009248 -0.006804 -0.036325
v -0.010000 -0.003000 -0.036325
v -0.009248 -0.006804 -0.036325
v -0.010000 -0.003000 -0.029737
vn 0.0000 0.0000 1.0000
vn 0.6479 0.1597 0.7448
vn 0.6636 0.2517 0.7045
vn 0.5841 0.4032 0.7045
vn 0.4995 0.4425 0.7448
vn 0.4706 0.5312 0.7045
vn 0.3298 0.6284 0.7045
vn 0.2366 0.6239 0.7448
vn 0.1698 0.6891 0.7045
vn 0.0000 0.7097 0.7045
vn -0.0804 0.6624 0.7448
vn -0.1698 0.6891 0.7045
vn -0.3298 0.6284 0.7045
vn -0.3791 0.5491 0.7448
vn -0.4706 0.5312 0.7045
vn -0.5841 0.4032 0.7045
vn -0.5908 0.3101 0.7448
vn -0.6636 0.2517 0.7045
vn -0.7045 0.0855 0.7045
vn -0.7045 -0.0855 0.7045
vn -0.6636 -0.2517 0.7045
vn -0.5908 -0.3101 0.7448
vn -0.5841 -0.4032 0.7045
vn -0.4706 -0.5312 0.7045
vn -0.3791 -0.5491 0.7448
vn -0.3298 -0.6284 0.7045
vn -0.1698 -0.6891 0.7045
vn -0.0804 -0.6624 0.7448
vn 0.0000 -0.7097 0.7045
vn 0.1698 -0.6891 0.7045
vn 0.2366 -0.6239 0.7448
vn 0.3298 -0.6284 0.7045
vn 0.4706 -0.5312 0.7045
vn 0.4995 -0.4425 0.7448
vn 0.5841 -0.4032 0.7045
vn 0.6636 -0.2517 0.7045
vn 0.6479 -0.1597 0.7448
vn 0.7045 -0.0855 0.7045
vn 0.7045 0.0855 0.7045
vn -0.9709 0.2393 -0.0109
vn -0.9350 0.3546 0.0000
vn -0.8230 0.5681 0.0000
vn -0.7485 0.6631 -0.0109
vn -0.6631 0.7485 0.0000
vn -0.4647 0.8855 0.0000
vn -0.3546 0.9350 -0.0109
vn -0.2393 0.9709 0.0000
vn 0.0000 1.0000 0.0000
vn 0.1205 0.9926 -0.0109
vn 0.2393 0.9709 0.0000
vn 0.4647 0.8855 0.0000
vn 0.5680 0.8229 -0.0109
vn 0.6631 0.7485 0.0000
vn 0.8230 0.5681 0.0000
vn 0.8854 0.4647 -0.0109
vn 0.9350 0.3546 0.0000
vn 0.9927 0.1205 0.0000
vn 0.9927 -0.1205 -0.0000
vn 0.9350 -0.3546 -0.0000
vn 0.8854 -0.4647 -0.0109
vn 0.8230 -0.5681 -0.0000
vn 0.6631 -0.7485 -0.0000
vn 0.5680 -0.8229 -0.0109
vn 0.4647 -0.8855 -0.0000
vn 0.2393 -0.9709 -0.0000
vn 0.1205 -0.9926 -0.0109
vn 0.0000 -1.0000 -0.0000
vn -0.2393 -0.9709 -0.0000
vn -0.3546 -0.9350 -0.0109
vn -0.4647 -0.8855 -0.0000
vn -0.6631 -0.7485 -0.0000
vn -0.7485 -0.6631 -0.0109
vn -0.8230 -0.5681 -0.0000
vn -0.9350 -0.3546 -0.0000
vn -0.9709 -0.2393 -0.0109
vn -0.9927 -0.1205 -0.0000
vn -0.9927 0.1205 0.0000
vn -1.0000 0.0000 0.0000
vn 0.5718 -0.8204 0.0000
vn 0.2143 -0.9768 0.0000
vn -0.2143 -0.9768 0.0000
vn -0.5718 -0.8204 0.0000
vn 1.0000 -0.0000 0.0000
vn -0.5718 0.8204 0.0000
vn -0.2143 0.9768 0.0000
vn 0.2143 0.9768 0.0000
vn 0.5718 0.8204 0.0000
vn 0.0000 0.0000 -1.0000
vn -0.8855 0.4647 0.0000
vn -0.5681 0.8230 0.0000
vn -0.1205 0.9927 0.0000
vn 0.3546 0.9350 0.0000
vn 0.7485 0.6631 0.0000
vn 0.9709 0.2393 0.0000
vn 0.9709 -0.2393 0.0000
vn 0.7485 -0.6631 0.0000
vn 0.3546 -0.9350 0.0000
vn -0.1205 -0.9927 0.0000
vn -0.5681 -0.8230 0.0000
vn -0.8855 -0.4647 0.0000
vn 0.7736 0.6334 0.0184
vn 0.8309 0.5547 0.0439
vn 0.6814 -0.7239 0.1079
vn 0.8244 -0.5660 -0.0000
vn -0.9787 -0.2055 -0.0000
vn -0.9998 0.0000 0.0191
vn -0.9994 0.0346 0.0000
vn -0.5169 0.8543 0.0538
vn -0.9236 0.3834 0.0000
vn -0.8853 0.4647 0.0171
vn -0.8050 0.5932 0.0000
vn 0.6551 0.7555 0.0000
vn 0.6169 0.7867 0.0229
vn 0.3875 -0.9216 -0.0213
vn 0.3781 -0.9257 -0.0000
vn -0.3876 -0.9218 -0.0000
vn -0.3780 -0.9255 -0.0226
vn 0.0000 -0.9978 -0.0669
vn 0.0332 -0.8377 -0.5451
vn -0.1291 -0.7928 -0.5956
vn 0.0573 -0.6942 -0.7175
vn -0.0200 -0.4320 -0.9017
vn 0.0245 -0.3015 -0.9532
vn 0.0056 -0.3128 -0.9498
vn -0.0014 -0.2722 -0.9622
vn 0.0000 -0.2678 -0.9635
vn -0.0099 -0.2620 -0.9650
vn 0.0069 -0.3336 -0.9427
vn -0.0093 -0.3487 -0.9372
vn 0.0205 -0.4323 -0.9015
vn 0.0037 -0.4374 -0.8993
vn -0.0092 -0.5797 -0.8148
vn -0.1329 -0.5138 -0.8476
vn -0.0466 -0.5932 -0.8037
vn 0.2361 -0.4907 -0.8387
vn -0.0126 -0.4902 -0.8715
vn 0.0022 -0.5938 -0.8046
vn 0.0000 -0.5885 -0.8085
vn 0.0000 -0.6954 -0.7187
vn 0.0045 -0.6969 -0.7171
vn -0.0042 -0.8442 -0.5361
vn 0.0539 -0.9874 -0.1487
vn -0.1990 -0.9329 -0.3002
vn 0.0000 -0.9351 -0.3545
vn 0.0000 -0.8456 -0.5339
vn -0.0464 -0.9894 -0.1374
vn 0.2124 -0.9270 -0.3091
vn 0.0182 -0.9379 -0.3465
vn -0.0030 -0.8894 -0.4572
vn -0.8129 0.5824 -0.0041
vn -0.9784 0.2066 0.0047
vn -0.9759 0.2183 0.0000
vn -0.9895 0.1265 -0.0693
vn 0.8129 0.5825 0.0000
vn 0.9784 0.2066 0.0000
vn 0.9905 0.1210 -0.0661
vn 0.9823 -0.1874 0.0000
vn 0.9813 -0.1892 -0.0355
vn 0.8431 -0.5359 0.0445
vn 0.8397 -0.5418 0.0364
vn 0.5225 -0.8520 -0.0330
vn 0.4810 -0.8750 0.0552
vn 0.2818 -0.9595 0.0000
vn 0.0506 -0.9987 -0.0001
vn 0.0000 -0.9977 0.0679
vn -0.1951 -0.9808 -0.0001
vn -0.4073 -0.9133 0.0003
vn -0.4848 -0.8698 0.0915
vn -0.6183 -0.7860 -0.0002
vn -0.8347 -0.5506 0.0008
vn -0.7971 -0.5696 0.2005
vn -0.9539 -0.2585 -0.1524
vn -0.9692 -0.2464 0.0000
vn -0.1951 -0.8494 0.4904
vn -0.9692 -0.2134 0.1232
vn -0.9858 -0.1386 0.0950
vn -0.8345 -0.4814 0.2679
vn -0.7877 -0.5335 0.3080
vn -0.4739 -0.7626 0.4403
vn -0.4085 -0.7965 0.4458
vn -0.6183 -0.6807 0.3930
vn 0.0508 -0.8691 0.4920
vn 0.0000 -0.8660 0.5000
vn 0.2817 -0.8310 0.4798
vn 0.4739 -0.7653 0.4356
vn 0.5264 -0.7348 0.4278
vn 0.8346 -0.4788 0.2726
vn 0.8362 -0.4764 0.2717
vn 0.9859 -0.1438 0.0859
vn 0.9823 -0.1623 0.0937
vn 0.0000 -0.5000 -0.8660
vn 1.0000 0.0026 0.0023
vn 0.9810 -0.1939 -0.0000
vn -1.0000 0.0026 0.0023
vn -0.0000 0.8660 -0.5000
vn -0.9810 -0.1939 -0.0000
usemtl Default_OBJ.002
s off
f 1//1 2//1 3//1
f 4//1 2//1 5//1
f 4//1 6//1 2//1
f 2//1 6//1 3//1
f 7//1 8//1 9//1
f 9//1 4//1 7//1
f 10//1 7//1 4//1
f 4//1 5//1 10//1
f 11//1 12//1 13//1
f 13//1 1//1 11//1
f 1//1 14//1 11//1
f 1//1 3//1 14//1
f 15//2 5//2 2//2
f 15//3 16//3 5//3
f 5//4 16//4 17//4
f 10//5 5//5 17//5
f 17//6 18//6 10//6
f 10//7 18//7 19//7
f 7//8 10//8 19//8
f 19//9 20//9 7//9
f 7//10 20//10 21//10
f 8//11 7//11 21//11
f 21//12 22//12 8//12
f 8//13 22//13 23//13
f 9//14 8//14 23//14
f 23//15 24//15 9//15
f 9//16 24//16 25//16
f 4//17 9//17 25//17
f 25//18 26//18 4//18
f 6//19 4//19 26//19
f 26//19 27//19 6//19
f 3//20 6//20 27//20
f 27//20 28//20 3//20
f 3//21 28//21 29//21
f 14//22 3//22 29//22
f 29//23 30//23 14//23
f 14//24 30//24 31//24
f 11//25 14//25 31//25
f 31//26 32//26 11//26
f 11//27 32//27 33//27
f 12//28 11//28 33//28
f 33//29 34//29 12//29
f 12//30 34//30 35//30
f 13//31 12//31 35//31
f 35//32 36//32 13//32
f 13//33 36//33 37//33
f 1//34 13//34 37//34
f 37//35 38//35 1//35
f 1//36 38//36 39//36
f 2//37 1//37 39//37
f 39//38 40//38 2//38
f 2//39 40//39 15//39
f 41//40 42//40 26//40
f 26//41 25//41 41//41
f 41//42 25//42 24//42
f 43//43 41//43 24//43
f 24//44 23//44 43//44
f 43//45 23//45 22//45
f 44//46 43//46 22//46
f 22//47 21//47 44//47
f 44//48 21//48 20//48
f 45//49 44//49 20//49
f 20//50 19//50 45//50
f 45//51 19//51 18//51
f 46//52 45//52 18//52
f 18//53 17//53 46//53
f 46//54 17//54 16//54
f 47//55 46//55 16//55
f 16//56 15//56 47//56
f 48//57 47//57 15//57
f 15//57 40//57 48//57
f 49//58 48//58 40//58
f 40//58 39//58 49//58
f 49//59 39//59 38//59
f 38//60 50//60 49//60
f 38//61 37//61 50//61
f 50//62 37//62 36//62
f 51//63 50//63 36//63
f 36//64 35//64 51//64
f 51//65 35//65 34//65
f 52//66 51//66 34//66
f 34//67 33//67 52//67
f 52//68 33//68 32//68
f 32//69 53//69 52//69
f 32//70 31//70 53//70
f 53//71 31//71 30//71
f 54//72 53//72 30//72
f 30//73 29//73 54//73
f 54//74 29//74 28//74
f 28//75 42//75 54//75
f 28//76 27//76 42//76
f 42//77 27//77 26//77
f 55//1 56//1 50//1
f 50//1 51//1 55//1
f 57//1 55//1 51//1
f 51//1 52//1 57//1
f 58//1 57//1 52//1
f 52//1 53//1 58//1
f 59//1 58//1 53//1
f 45//1 46//1 60//1
f 60//1 61//1 45//1
f 44//1 45//1 61//1
f 61//1 62//1 44//1
f 43//1 44//1 62//1
f 62//1 63//1 43//1
f 41//1 43//1 63//1
f 63//1 64//1 41//1
f 42//1 41//1 64//1
f 64//1 59//1 42//1
f 54//1 42//1 59//1
f 53//1 54//1 59//1
f 60//1 46//1 47//1
f 60//1 47//1 48//1
f 48//1 56//1 60//1
f 48//1 49//1 56//1
f 49//1 50//1 56//1
f 65//78 59//78 64//78
f 64//78 66//78 65//78
f 67//79 56//79 55//79
f 55//79 68//79 67//79
f 68//80 55//80 57//80
f 57//80 69//80 68//80
f 69//81 57//81 58//81
f 58//81 70//81 69//81
f 70//82 58//82 59//82
f 59//82 65//82 70//82
f 56//83 67//83 71//83
f 71//83 60//83 56//83
f 66//84 64//84 63//84
f 63//84 72//84 66//84
f 72//85 63//85 62//85
f 62//85 73//85 72//85
f 73//86 62//86 61//86
f 61//86 74//86 73//86
f 74//87 61//87 60//87
f 60//87 71//87 74//87
f 75//88 71//88 67//88
f 71//88 75//88 76//88
f 74//88 71//88 76//88
f 76//88 77//88 74//88
f 73//88 74//88 77//88
f 77//88 78//88 73//88
f 73//88 78//88 79//88
f 79//88 80//88 66//88
f 66//88 72//88 79//88
f 79//88 72//88 73//88
f 70//88 65//88 81//88
f 81//88 82//88 70//88
f 69//88 70//88 82//88
f 82//88 83//88 69//88
f 68//88 69//88 83//88
f 83//88 84//88 68//88
f 67//88 68//88 84//88
f 84//88 85//88 67//88
f 67//88 85//88 75//88
f 66//88 80//88 86//88
f 66//88 86//88 87//88
f 87//88 65//88 66//88
f 87//88 88//88 65//88
f 88//88 81//88 65//88
f 88//76 87//76 89//76
f 90//77 89//77 87//77
f 87//77 86//77 90//77
f 90//89 86//89 80//89
f 80//89 91//89 90//89
f 91//90 80//90 79//90
f 79//90 92//90 91//90
f 92//91 79//91 78//91
f 78//91 93//91 92//91
f 93//92 78//92 77//92
f 77//92 94//92 93//92
f 94//93 77//93 76//93
f 76//93 95//93 94//93
f 95//94 76//94 75//94
f 75//94 96//94 95//94
f 96//95 75//95 85//95
f 85//95 97//95 96//95
f 97//96 85//96 84//96
f 84//96 98//96 97//96
f 98//97 84//97 83//97
f 83//97 99//97 98//97
f 99//98 83//98 82//98
f 82//98 100//98 99//98
f 100//99 82//99 81//99
f 81//99 101//99 100//99
f 101//100 81//100 88//100
f 88//100 102//100 101//100
f 89//76 102//76 88//76
f 101//1 102//1 103//1
f 103//1 104//1 101//1
f 100//1 101//1 104//1
f 104//1 105//1 100//1
f 99//1 100//1 105//1
f 105//1 106//1 99//1
f 98//1 99//1 106//1
f 106//1 107//1 98//1
f 97//1 98//1 107//1
f 107//1 108//1 97//1
f 96//1 97//1 108//1
f 108//1 109//1 96//1
f 95//1 96//1 109//1
f 109//1 110//1 95//1
f 94//1 95//1 110//1
f 110//1 111//1 94//1
f 93//1 94//1 111//1
f 111//1 112//1 93//1
f 92//1 93//1 112//1
f 112//1 113//1 92//1
f 91//1 92//1 113//1
f 113//1 114//1 91//1
f 90//1 91//1 114//1
f 114//1 115//1 90//1
f 89//1 90//1 115//1
f 115//1 116//1 89//1
f 102//1 89//1 116//1
f 116//1 103//1 102//1
f 103//76 116//76 117//76
f 118//77 117//77 116//77
f 116//77 115//77 118//77
f 118//89 115//89 114//89
f 114//89 119//89 118//89
f 119//90 114//90 113//90
f 113//90 120//90 119//90
f 120//91 113//91 112//91
f 112//91 121//91 120//91
f 121//92 112//92 111//92
f 111//92 122//92 121//92
f 122//93 111//93 110//93
f 110//93 123//93 122//93
f 123//94 110//94 109//94
f 109//94 124//94 123//94
f 124//95 109//95 108//95
f 108//95 125//95 124//95
f 125//96 108//96 107//96
f 107//96 126//96 125//96
f 126//97 107//97 106//97
f 106//97 127//97 126//97
f 127//98 106//98 105//98
f 105//98 128//98 127//98
f 128//99 105//99 104//99
f 104//99 129//99 128//99
f 129//100 104//100 103//100
f 103//100 130//100 129//100
f 117//76 130//76 103//76
f 130//88 117//88 131//88
f 117//88 118//88 131//88
f 132//88 131//88 118//88
f 118//88 119//88 132//88
f 133//88 132//88 119//88
f 119//88 120//88 133//88
f 134//88 133//88 120//88
f 120//88 121//88 134//88
f 135//88 134//88 121//88
f 121//88 122//88 135//88
f 136//88 135//88 122//88
f 122//88 123//88 136//88
f 137//88 136//88 123//88
f 123//88 124//88 137//88
f 138//88 137//88 124//88
f 124//88 125//88 138//88
f 139//88 138//88 125//88
f 125//88 126//88 139//88
f 140//88 139//88 126//88
f 126//88 127//88 140//88
f 141//88 140//88 127//88
f 127//88 128//88 141//88
f 142//88 141//88 128//88
f 128//88 129//88 142//88
f 143//88 142//88 129//88
f 129//88 130//88 143//88
f 131//88 143//88 130//88
f 138//95 144//95 145//95
f 144//96 138//96 139//96
f 139//96 146//96 144//96
f 146//97 139//97 140//97
f 140//97 147//97 146//97
f 147//98 140//98 141//98
f 141//98 148//98 147//98
f 148//99 141//99 142//99
f 142//99 149//99 148//99
f 149//100 142//100 143//100
f 143//100 150//100 149//100
f 150//78 143//78 131//78
f 131//78 151//78 150//78
f 151//89 131//89 132//89
f 132//89 152//89 151//89
f 152//90 132//90 133//90
f 133//90 153//90 152//90
f 153//91 133//91 134//91
f 134//91 154//91 153//91
f 154//92 134//92 135//92
f 135//92 155//92 154//92
f 155//93 135//93 136//93
f 136//93 156//93 155//93
f 156//94 136//94 137//94
f 137//94 145//94 156//94
f 145//95 137//95 138//95
f 153//1 154//1 157//1
f 157//1 158//1 153//1
f 152//1 153//1 158//1
f 158//1 159//1 152//1
f 151//1 152//1 159//1
f 159//1 160//1 151//1
f 150//1 151//1 160//1
f 160//1 161//1 150//1
f 149//1 150//1 161//1
f 161//1 162//1 149//1
f 148//1 149//1 162//1
f 162//1 163//1 148//1
f 147//1 148//1 163//1
f 163//1 164//1 147//1
f 146//1 147//1 164//1
f 164//1 165//1 146//1
f 144//1 146//1 165//1
f 165//1 166//1 144//1
f 145//1 144//1 166//1
f 166//1 167//1 145//1
f 156//1 145//1 167//1
f 167//1 168//1 156//1
f 155//1 156//1 168//1
f 168//1 169//1 155//1
f 154//1 155//1 169//1
f 169//1 157//1 154//1
f 170//101 171//101 169//101
f 172//102 170//102 169//102
f 173//95 167//95 166//95
f 167//94 173//94 172//94
f 172//94 168//94 167//94
f 169//93 168//93 172//93
f 174//103 175//103 166//103
f 175//104 176//104 166//104
f 166//95 176//95 173//95
f 166//96 165//96 174//96
f 174//97 165//97 164//97
f 164//97 177//97 174//97
f 177//98 164//98 163//98
f 163//98 178//98 177//98
f 178//99 163//99 162//99
f 162//99 179//99 178//99
f 179//100 162//100 161//100
f 161//100 180//100 179//100
f 181//105 180//105 161//105
f 161//106 160//106 181//106
f 160//107 182//107 181//107
f 183//108 184//108 185//108
f 186//109 182//109 160//109
f 160//110 159//110 186//110
f 159//111 185//111 186//111
f 185//90 159//90 158//90
f 158//90 183//90 185//90
f 183//91 158//91 157//91
f 157//91 187//91 183//91
f 187//92 157//92 169//92
f 169//92 188//92 187//92
f 188//112 169//112 171//112
f 171//113 189//113 188//113
f 190//88 191//88 184//88
f 184//88 183//88 190//88
f 192//88 190//88 183//88
f 183//88 187//88 192//88
f 193//88 192//88 187//88
f 187//88 188//88 193//88
f 188//88 189//88 193//88
f 194//114 195//114 191//114
f 191//115 190//115 194//115
f 196//67 194//67 190//67
f 190//67 192//67 196//67
f 197//116 196//116 192//116
f 192//117 193//117 197//117
f 198//118 197//118 193//118
f 199//119 200//119 172//119
f 172//120 173//120 199//120
f 173//121 201//121 199//121
f 202//122 203//122 179//122
f 178//123 179//123 203//123
f 203//124 204//124 178//124
f 177//125 178//125 204//125
f 204//126 205//126 177//126
f 174//127 177//127 205//127
f 205//128 206//128 174//128
f 175//129 174//129 206//129
f 206//130 207//130 175//130
f 207//131 176//131 175//131
f 173//132 176//132 207//132
f 207//133 208//133 173//133
f 208//134 201//134 173//134
f 209//135 202//135 179//135
f 179//136 180//136 209//136
f 210//137 209//137 180//137
f 180//138 181//138 210//138
f 211//139 210//139 181//139
f 181//140 182//140 211//140
f 212//141 211//141 182//141
f 184//118 191//118 195//118
f 195//118 213//118 184//118
f 185//142 184//142 213//142
f 213//143 212//143 185//143
f 212//144 186//144 185//144
f 182//145 186//145 212//145
f 193//118 189//118 198//118
f 198//146 189//146 171//146
f 200//147 198//147 171//147
f 171//148 170//148 200//148
f 200//149 170//149 172//149
f 213//150 214//150 212//150
f 212//151 214//151 215//151
f 215//152 216//152 212//152
f 216//153 211//153 212//153
f 200//154 217//154 198//154
f 218//155 219//155 217//155
f 217//155 200//155 218//155
f 200//156 199//156 218//156
f 220//157 221//157 208//157
f 208//158 207//158 220//158
f 220//159 207//159 206//159
f 206//160 222//160 220//160
f 223//161 222//161 206//161
f 206//162 205//162 223//162
f 205//163 224//163 223//163
f 225//164 224//164 205//164
f 205//165 204//165 225//165
f 204//166 226//166 225//166
f 227//167 226//167 204//167
f 204//168 203//168 227//168
f 203//169 228//169 227//169
f 228//170 203//170 202//170
f 202//171 229//171 228//171
f 229//172 202//172 209//172
f 209//173 230//173 229//173
f 225//174 226//174 231//174
f 229//175 230//175 232//175
f 232//176 233//176 229//176
f 229//177 233//177 234//177
f 234//178 228//178 229//178
f 234//179 231//179 226//179
f 226//180 227//180 234//180
f 227//181 228//181 234//181
f 224//182 225//182 231//182
f 231//183 235//183 224//183
f 223//184 224//184 235//184
f 235//185 236//185 223//185
f 236//186 222//186 223//186
f 222//187 236//187 237//187
f 237//188 220//188 222//188
f 220//189 237//189 238//189
f 238//190 221//190 220//190
f 232//191 239//191 240//191
f 240//191 238//191 232//191
f 232//191 238//191 237//191
f 233//191 232//191 237//191
f 235//191 231//191 234//191
f 234//191 233//191 237//191
f 234//191 237//191 236//191
f 236//191 235//191 234//191
f 218//192 199//192 201//192
f 201//83 208//83 221//83
f 241//83 201//83 221//83
f 221//83 238//83 241//83
f 238//83 240//83 241//83
f 219//83 218//83 201//83
f 201//83 241//83 219//83
f 241//83 242//83 219//83
f 243//193 242//193 241//193
f 242//88 243//88 197//88
f 215//88 214//88 213//88
f 213//88 195//88 215//88
f 195//88 244//88 215//88
f 194//88 196//88 197//88
f 197//88 243//88 194//88
f 195//88 194//88 243//88
f 243//88 245//88 195//88
f 195//88 245//88 244//88
f 197//88 198//88 217//88
f 217//88 219//88 197//88
f 219//88 242//88 197//88
f 230//78 209//78 210//78
f 210//194 211//194 216//194
f 246//78 210//78 216//78
f 216//78 215//78 246//78
f 215//78 244//78 246//78
f 232//78 230//78 210//78
f 210//78 246//78 232//78
f 246//78 239//78 232//78
f 239//195 246//195 245//195
f 240//195 239//195 245//195
f 245//195 243//195 240//195
f 243//195 241//195 240//195
f 246//196 244//196 245//196
